<svg width="90" height="90" viewBox="0 0 90 90" fill="none" xmlns="http://www.w3.org/2000/svg">
<g filter="url(#filter0_dd_2_140)">
<circle cx="45.5" cy="45.5" r="36.5" fill="#575757"/>
</g>
<path d="M45.4988 56.3878C43.8614 56.3878 42.4561 55.9735 41.2828 55.1449C40.1162 54.3097 39.218 53.1065 38.5882 51.5355C37.9651 49.9579 37.6536 48.0587 37.6536 45.8381C37.6602 43.6174 37.9751 41.7282 38.5982 40.1705C39.2279 38.6061 40.1261 37.4129 41.2928 36.5909C42.4661 35.7689 43.8681 35.358 45.4988 35.358C47.1294 35.358 48.5314 35.7689 49.7047 36.5909C50.878 37.4129 51.7762 38.6061 52.3993 40.1705C53.0291 41.7348 53.3439 43.6241 53.3439 45.8381C53.3439 48.0653 53.0291 49.9678 52.3993 51.5455C51.7762 53.1165 50.878 54.3163 49.7047 55.1449C48.5381 55.9735 47.1361 56.3878 45.4988 56.3878ZM45.4988 53.2756C46.7715 53.2756 47.7757 52.6491 48.5115 51.3963C49.254 50.1368 49.6252 48.2841 49.6252 45.8381C49.6252 44.2206 49.4561 42.8617 49.1181 41.7614C48.78 40.661 48.3027 39.8324 47.6863 39.2756C47.0698 38.7121 46.3406 38.4304 45.4988 38.4304C44.2327 38.4304 43.2317 39.0601 42.4959 40.3196C41.7601 41.5724 41.3889 43.4119 41.3823 45.8381C41.3757 47.4621 41.5381 48.8277 41.8695 49.9347C42.2076 51.0417 42.6848 51.8769 43.3013 52.4403C43.9178 52.9972 44.6503 53.2756 45.4988 53.2756Z" fill="white"/>
<defs>
<filter id="filter0_dd_2_140" x="0" y="0" width="90" height="90" filterUnits="userSpaceOnUse" color-interpolation-filters="sRGB">
<feFlood flood-opacity="0" result="BackgroundImageFix"/>
<feColorMatrix in="SourceAlpha" type="matrix" values="0 0 0 0 0 0 0 0 0 0 0 0 0 0 0 0 0 0 127 0" result="hardAlpha"/>
<feOffset dx="2" dy="2"/>
<feGaussianBlur stdDeviation="3"/>
<feComposite in2="hardAlpha" operator="out"/>
<feColorMatrix type="matrix" values="0 0 0 0 0.682353 0 0 0 0 0.682353 0 0 0 0 0.752941 0 0 0 1 0"/>
<feBlend mode="normal" in2="BackgroundImageFix" result="effect1_dropShadow_2_140"/>
<feColorMatrix in="SourceAlpha" type="matrix" values="0 0 0 0 0 0 0 0 0 0 0 0 0 0 0 0 0 0 127 0" result="hardAlpha"/>
<feOffset dx="-3" dy="-3"/>
<feGaussianBlur stdDeviation="3"/>
<feComposite in2="hardAlpha" operator="out"/>
<feColorMatrix type="matrix" values="0 0 0 0 1 0 0 0 0 1 0 0 0 0 1 0 0 0 1 0"/>
<feBlend mode="normal" in2="effect1_dropShadow_2_140" result="effect2_dropShadow_2_140"/>
<feBlend mode="normal" in="SourceGraphic" in2="effect2_dropShadow_2_140" result="shape"/>
</filter>
</defs>
</svg>
