<svg width="90" height="90" viewBox="0 0 90 90" fill="none" xmlns="http://www.w3.org/2000/svg">
<g filter="url(#filter0_dd_2_182)">
<circle cx="45.5" cy="45.5" r="36.5" fill="#FF8E26"/>
</g>
<path d="M34.9375 53.625C34.2604 53.625 33.6846 53.3878 33.2101 52.9133C32.7356 52.4388 32.4989 51.8635 32.5 51.1875C32.5 50.5104 32.7373 49.9346 33.2118 49.4601C33.6863 48.9856 34.2615 48.7489 34.9375 48.75H56.0625C56.7396 48.75 57.3154 48.9873 57.7899 49.4618C58.2644 49.9363 58.5011 50.5115 58.5 51.1875C58.5 51.8646 58.2628 52.4404 57.7883 52.9149C57.3138 53.3894 56.7385 53.6261 56.0625 53.625H34.9375ZM34.9375 42.25C34.2604 42.25 33.6846 42.0128 33.2101 41.5383C32.7356 41.0638 32.4989 40.4885 32.5 39.8125C32.5 39.1354 32.7373 38.5596 33.2118 38.0851C33.6863 37.6106 34.2615 37.3739 34.9375 37.375H56.0625C56.7396 37.375 57.3154 37.6123 57.7899 38.0868C58.2644 38.5613 58.5011 39.1365 58.5 39.8125C58.5 40.4896 58.2628 41.0654 57.7883 41.5399C57.3138 42.0144 56.7385 42.2511 56.0625 42.25H34.9375Z" fill="white"/>
<defs>
<filter id="filter0_dd_2_182" x="0" y="0" width="90" height="90" filterUnits="userSpaceOnUse" color-interpolation-filters="sRGB">
<feFlood flood-opacity="0" result="BackgroundImageFix"/>
<feColorMatrix in="SourceAlpha" type="matrix" values="0 0 0 0 0 0 0 0 0 0 0 0 0 0 0 0 0 0 127 0" result="hardAlpha"/>
<feOffset dx="2" dy="2"/>
<feGaussianBlur stdDeviation="3"/>
<feComposite in2="hardAlpha" operator="out"/>
<feColorMatrix type="matrix" values="0 0 0 0 0.682353 0 0 0 0 0.682353 0 0 0 0 0.752941 0 0 0 1 0"/>
<feBlend mode="normal" in2="BackgroundImageFix" result="effect1_dropShadow_2_182"/>
<feColorMatrix in="SourceAlpha" type="matrix" values="0 0 0 0 0 0 0 0 0 0 0 0 0 0 0 0 0 0 127 0" result="hardAlpha"/>
<feOffset dx="-3" dy="-3"/>
<feGaussianBlur stdDeviation="3"/>
<feComposite in2="hardAlpha" operator="out"/>
<feColorMatrix type="matrix" values="0 0 0 0 1 0 0 0 0 1 0 0 0 0 1 0 0 0 1 0"/>
<feBlend mode="normal" in2="effect1_dropShadow_2_182" result="effect2_dropShadow_2_182"/>
<feBlend mode="normal" in="SourceGraphic" in2="effect2_dropShadow_2_182" result="shape"/>
</filter>
</defs>
</svg>
