<svg width="90" height="90" viewBox="0 0 90 90" fill="none" xmlns="http://www.w3.org/2000/svg">
<g filter="url(#filter0_dd_22_42)">
<circle cx="45.5" cy="45.5" r="36.5" fill="#575757"/>
</g>
<path d="M46.3203 51.9091V50.7585C46.3203 49.8849 46.505 49.0824 46.8743 48.3509C47.2507 47.6122 47.794 47.0227 48.5043 46.5824C49.2216 46.1349 50.0952 45.9112 51.125 45.9112C52.169 45.9112 53.0462 46.1314 53.7564 46.5717C54.4737 47.0121 55.0135 47.6016 55.3757 48.3402C55.745 49.0717 55.9297 49.8778 55.9297 50.7585V51.9091C55.9297 52.7827 55.745 53.5888 55.3757 54.3274C55.0064 55.0589 54.4631 55.6449 53.7457 56.0852C53.0284 56.5327 52.1548 56.7564 51.125 56.7564C50.081 56.7564 49.2038 56.5327 48.4936 56.0852C47.7834 55.6449 47.2436 55.0589 46.8743 54.3274C46.505 53.5888 46.3203 52.7827 46.3203 51.9091ZM49.4205 50.7585V51.9091C49.4205 52.4134 49.5412 52.8892 49.7827 53.3366C50.0313 53.7841 50.4787 54.0078 51.125 54.0078C51.7713 54.0078 52.2116 53.7876 52.446 53.3473C52.6875 52.907 52.8082 52.4276 52.8082 51.9091V50.7585C52.8082 50.2401 52.6946 49.7571 52.4673 49.3097C52.2401 48.8622 51.7926 48.6385 51.125 48.6385C50.4858 48.6385 50.0419 48.8622 49.7933 49.3097C49.5447 49.7571 49.4205 50.2401 49.4205 50.7585ZM35.1236 39.4233V38.2727C35.1236 37.392 35.3118 36.5859 35.6882 35.8544C36.0646 35.1158 36.608 34.5263 37.3182 34.0859C38.0355 33.6456 38.902 33.4254 39.9176 33.4254C40.9688 33.4254 41.8494 33.6456 42.5597 34.0859C43.2699 34.5263 43.8097 35.1158 44.179 35.8544C44.5483 36.5859 44.733 37.392 44.733 38.2727V39.4233C44.733 40.304 44.5447 41.1101 44.1683 41.8416C43.799 42.5732 43.2557 43.1591 42.5384 43.5994C41.8281 44.0327 40.9545 44.2493 39.9176 44.2493C38.8807 44.2493 38.0036 44.0291 37.2862 43.5888C36.576 43.1413 36.0362 42.5554 35.6669 41.831C35.3047 41.0994 35.1236 40.2969 35.1236 39.4233ZM38.245 38.2727V39.4233C38.245 39.9418 38.3658 40.4212 38.6072 40.8615C38.8558 41.3018 39.2926 41.522 39.9176 41.522C40.571 41.522 41.0149 41.3018 41.2493 40.8615C41.4908 40.4212 41.6115 39.9418 41.6115 39.4233V38.2727C41.6115 37.7543 41.4979 37.2713 41.2706 36.8239C41.0433 36.3764 40.5923 36.1527 39.9176 36.1527C39.2855 36.1527 38.8487 36.38 38.6072 36.8345C38.3658 37.2891 38.245 37.7685 38.245 38.2727ZM36.5298 56L51.5298 34.1818H54.321L39.321 56H36.5298Z" fill="#FF8E26"/>
<defs>
<filter id="filter0_dd_22_42" x="0" y="0" width="90" height="90" filterUnits="userSpaceOnUse" color-interpolation-filters="sRGB">
<feFlood flood-opacity="0" result="BackgroundImageFix"/>
<feColorMatrix in="SourceAlpha" type="matrix" values="0 0 0 0 0 0 0 0 0 0 0 0 0 0 0 0 0 0 127 0" result="hardAlpha"/>
<feOffset dx="2" dy="2"/>
<feGaussianBlur stdDeviation="3"/>
<feComposite in2="hardAlpha" operator="out"/>
<feColorMatrix type="matrix" values="0 0 0 0 0.682353 0 0 0 0 0.682353 0 0 0 0 0.752941 0 0 0 1 0"/>
<feBlend mode="normal" in2="BackgroundImageFix" result="effect1_dropShadow_22_42"/>
<feColorMatrix in="SourceAlpha" type="matrix" values="0 0 0 0 0 0 0 0 0 0 0 0 0 0 0 0 0 0 127 0" result="hardAlpha"/>
<feOffset dx="-3" dy="-3"/>
<feGaussianBlur stdDeviation="3"/>
<feComposite in2="hardAlpha" operator="out"/>
<feColorMatrix type="matrix" values="0 0 0 0 1 0 0 0 0 1 0 0 0 0 1 0 0 0 1 0"/>
<feBlend mode="normal" in2="effect1_dropShadow_22_42" result="effect2_dropShadow_22_42"/>
<feBlend mode="normal" in="SourceGraphic" in2="effect2_dropShadow_22_42" result="shape"/>
</filter>
</defs>
</svg>
