<svg width="175" height="90" viewBox="0 0 175 90" fill="none" xmlns="http://www.w3.org/2000/svg">
<g filter="url(#filter0_dd_2_149)">
<rect x="9" y="9" width="158" height="73" rx="27" fill="#EAEDF2"/>
</g>
<path d="M88.4988 56.3878C86.8614 56.3878 85.4561 55.9735 84.2828 55.1449C83.1162 54.3097 82.218 53.1065 81.5882 51.5355C80.9651 49.9579 80.6536 48.0587 80.6536 45.8381C80.6602 43.6174 80.9751 41.7282 81.5982 40.1705C82.2279 38.6061 83.1261 37.4129 84.2928 36.5909C85.4661 35.7689 86.8681 35.358 88.4988 35.358C90.1294 35.358 91.5314 35.7689 92.7047 36.5909C93.878 37.4129 94.7762 38.6061 95.3993 40.1705C96.0291 41.7348 96.3439 43.6241 96.3439 45.8381C96.3439 48.0653 96.0291 49.9678 95.3993 51.5455C94.7762 53.1165 93.878 54.3163 92.7047 55.1449C91.5381 55.9735 90.1361 56.3878 88.4988 56.3878ZM88.4988 53.2756C89.7715 53.2756 90.7757 52.6491 91.5115 51.3963C92.254 50.1368 92.6252 48.2841 92.6252 45.8381C92.6252 44.2206 92.4561 42.8617 92.1181 41.7614C91.78 40.661 91.3027 39.8324 90.6863 39.2756C90.0698 38.7121 89.3406 38.4304 88.4988 38.4304C87.2327 38.4304 86.2317 39.0601 85.4959 40.3196C84.7601 41.5724 84.3889 43.4119 84.3823 45.8381C84.3757 47.4621 84.5381 48.8277 84.8695 49.9347C85.2076 51.0417 85.6848 51.8769 86.3013 52.4403C86.9178 52.9972 87.6503 53.2756 88.4988 53.2756Z" fill="black"/>
<defs>
<filter id="filter0_dd_2_149" x="0" y="0" width="175" height="90" filterUnits="userSpaceOnUse" color-interpolation-filters="sRGB">
<feFlood flood-opacity="0" result="BackgroundImageFix"/>
<feColorMatrix in="SourceAlpha" type="matrix" values="0 0 0 0 0 0 0 0 0 0 0 0 0 0 0 0 0 0 127 0" result="hardAlpha"/>
<feOffset dx="2" dy="2"/>
<feGaussianBlur stdDeviation="3"/>
<feComposite in2="hardAlpha" operator="out"/>
<feColorMatrix type="matrix" values="0 0 0 0 0.682353 0 0 0 0 0.682353 0 0 0 0 0.752941 0 0 0 1 0"/>
<feBlend mode="normal" in2="BackgroundImageFix" result="effect1_dropShadow_2_149"/>
<feColorMatrix in="SourceAlpha" type="matrix" values="0 0 0 0 0 0 0 0 0 0 0 0 0 0 0 0 0 0 127 0" result="hardAlpha"/>
<feOffset dx="-3" dy="-3"/>
<feGaussianBlur stdDeviation="3"/>
<feComposite in2="hardAlpha" operator="out"/>
<feColorMatrix type="matrix" values="0 0 0 0 1 0 0 0 0 1 0 0 0 0 1 0 0 0 1 0"/>
<feBlend mode="normal" in2="effect1_dropShadow_2_149" result="effect2_dropShadow_2_149"/>
<feBlend mode="normal" in="SourceGraphic" in2="effect2_dropShadow_2_149" result="shape"/>
</filter>
</defs>
</svg>
