<svg width="90" height="90" viewBox="0 0 90 90" fill="none" xmlns="http://www.w3.org/2000/svg">
<g filter="url(#filter0_dd_2_140)">
<circle cx="45.5" cy="45.5" r="36.5" fill="#EAEDF2"/>
</g>
<path d="M45.4988 56.2784C44.0669 56.2784 42.7942 56.0331 41.6806 55.5426C40.5736 55.0521 39.6986 54.3693 39.0556 53.4943C38.4126 52.6193 38.0712 51.6084 38.0314 50.4616H41.7701C41.8032 51.0118 41.9855 51.4924 42.3169 51.9034C42.6484 52.3078 43.0892 52.6226 43.6394 52.848C44.1896 53.0734 44.806 53.1861 45.4888 53.1861C46.218 53.1861 46.8643 53.0601 47.4277 52.8082C47.9912 52.5497 48.432 52.1918 48.7502 51.7344C49.0684 51.277 49.2241 50.75 49.2175 50.1534C49.2241 49.5369 49.065 48.9934 48.7402 48.5227C48.4154 48.0521 47.9448 47.6842 47.3283 47.419C46.7185 47.1539 45.9827 47.0213 45.1209 47.0213H43.3212V44.1776H45.1209C45.8302 44.1776 46.45 44.0549 46.9803 43.8097C47.5172 43.5644 47.9382 43.2197 48.2431 42.7756C48.548 42.3248 48.6971 41.8044 48.6905 41.2145C48.6971 40.6378 48.5679 40.1373 48.3027 39.7131C48.0442 39.2822 47.6763 38.9474 47.199 38.7088C46.7284 38.4702 46.1749 38.3508 45.5385 38.3508C44.9154 38.3508 44.3387 38.4635 43.8084 38.6889C43.2781 38.9143 42.8506 39.2358 42.5257 39.6534C42.2009 40.0644 42.0286 40.5549 42.0087 41.125H38.459C38.4855 39.9848 38.8136 38.9839 39.4434 38.1222C40.0797 37.2538 40.9282 36.5776 41.9888 36.0937C43.0494 35.6032 44.2393 35.358 45.5584 35.358C46.9173 35.358 48.0972 35.6132 49.0982 36.1236C50.1058 36.6274 50.8846 37.3068 51.4348 38.1619C51.985 39.017 52.2601 39.9616 52.2601 40.9957C52.2668 42.1425 51.9287 43.1037 51.2459 43.8793C50.5698 44.6548 49.6815 45.1619 48.5811 45.4006V45.5597C50.013 45.7585 51.11 46.2888 51.8723 47.1506C52.6413 48.0057 53.0224 49.0696 53.0158 50.3423C53.0158 51.4825 52.691 52.5033 52.0414 53.4048C51.3984 54.2997 50.5101 55.0024 49.3766 55.5128C48.2497 56.0232 46.9571 56.2784 45.4988 56.2784Z" fill="black"/>
<defs>
<filter id="filter0_dd_2_140" x="0" y="0" width="90" height="90" filterUnits="userSpaceOnUse" color-interpolation-filters="sRGB">
<feFlood flood-opacity="0" result="BackgroundImageFix"/>
<feColorMatrix in="SourceAlpha" type="matrix" values="0 0 0 0 0 0 0 0 0 0 0 0 0 0 0 0 0 0 127 0" result="hardAlpha"/>
<feOffset dx="2" dy="2"/>
<feGaussianBlur stdDeviation="3"/>
<feComposite in2="hardAlpha" operator="out"/>
<feColorMatrix type="matrix" values="0 0 0 0 0.682353 0 0 0 0 0.682353 0 0 0 0 0.752941 0 0 0 1 0"/>
<feBlend mode="normal" in2="BackgroundImageFix" result="effect1_dropShadow_2_140"/>
<feColorMatrix in="SourceAlpha" type="matrix" values="0 0 0 0 0 0 0 0 0 0 0 0 0 0 0 0 0 0 127 0" result="hardAlpha"/>
<feOffset dx="-3" dy="-3"/>
<feGaussianBlur stdDeviation="3"/>
<feComposite in2="hardAlpha" operator="out"/>
<feColorMatrix type="matrix" values="0 0 0 0 1 0 0 0 0 1 0 0 0 0 1 0 0 0 1 0"/>
<feBlend mode="normal" in2="effect1_dropShadow_2_140" result="effect2_dropShadow_2_140"/>
<feBlend mode="normal" in="SourceGraphic" in2="effect2_dropShadow_2_140" result="shape"/>
</filter>
</defs>
</svg>
