<svg width="90" height="90" viewBox="0 0 90 90" fill="none" xmlns="http://www.w3.org/2000/svg">
<g filter="url(#filter0_dd_2_131)">
<circle cx="45.5" cy="45.5" r="36.5" fill="#EAEDF2"/>
</g>
<path d="M45.6889 56.2784C44.7145 56.2718 43.7633 56.1027 42.8352 55.7713C41.9072 55.4332 41.072 54.8864 40.3295 54.1307C39.5871 53.3684 38.9972 52.3575 38.5597 51.098C38.1222 49.8319 37.9067 48.2642 37.9134 46.3949C37.9134 44.6515 38.099 43.0971 38.4702 41.7315C38.8414 40.366 39.375 39.2126 40.071 38.2713C40.767 37.3234 41.6056 36.6009 42.5866 36.1037C43.5743 35.6065 44.678 35.358 45.8977 35.358C47.1771 35.358 48.3106 35.6098 49.2983 36.1136C50.2926 36.6174 51.0947 37.3068 51.7045 38.1818C52.3144 39.0502 52.6922 40.0312 52.8381 41.125H49.2088C49.0232 40.3428 48.642 39.7197 48.0653 39.2557C47.4953 38.785 46.7727 38.5497 45.8977 38.5497C44.4858 38.5497 43.3987 39.1629 42.6364 40.3892C41.8807 41.6155 41.4995 43.2992 41.4929 45.4403H41.6321C41.9569 44.857 42.3778 44.3565 42.8949 43.9389C43.4119 43.5213 43.9953 43.1998 44.6449 42.9744C45.3011 42.7424 45.9938 42.6264 46.723 42.6264C47.9162 42.6264 48.9867 42.9115 49.9347 43.4815C50.8892 44.0516 51.6449 44.8371 52.2017 45.8381C52.7585 46.8324 53.0336 47.9725 53.027 49.2585C53.0336 50.5975 52.7287 51.8007 52.1122 52.8679C51.4957 53.9285 50.6373 54.7637 49.5369 55.3736C48.4366 55.9834 47.1539 56.285 45.6889 56.2784ZM45.669 53.2955C46.3916 53.2955 47.0379 53.1198 47.608 52.7685C48.178 52.4171 48.6288 51.9432 48.9602 51.3466C49.2917 50.75 49.4541 50.0805 49.4474 49.3381C49.4541 48.6089 49.295 47.9493 48.9702 47.3594C48.652 46.7694 48.2112 46.3021 47.6477 45.9574C47.0843 45.6127 46.4413 45.4403 45.7187 45.4403C45.1818 45.4403 44.6813 45.5431 44.2173 45.7486C43.7533 45.9541 43.349 46.2391 43.0043 46.6037C42.6596 46.9616 42.3878 47.3793 42.1889 47.8565C41.9967 48.3272 41.8973 48.831 41.8906 49.3679C41.8973 50.0772 42.063 50.7301 42.3878 51.3267C42.7126 51.9233 43.16 52.4006 43.7301 52.7585C44.3002 53.1165 44.9465 53.2955 45.669 53.2955Z" fill="black"/>
<defs>
<filter id="filter0_dd_2_131" x="0" y="0" width="90" height="90" filterUnits="userSpaceOnUse" color-interpolation-filters="sRGB">
<feFlood flood-opacity="0" result="BackgroundImageFix"/>
<feColorMatrix in="SourceAlpha" type="matrix" values="0 0 0 0 0 0 0 0 0 0 0 0 0 0 0 0 0 0 127 0" result="hardAlpha"/>
<feOffset dx="2" dy="2"/>
<feGaussianBlur stdDeviation="3"/>
<feComposite in2="hardAlpha" operator="out"/>
<feColorMatrix type="matrix" values="0 0 0 0 0.682353 0 0 0 0 0.682353 0 0 0 0 0.752941 0 0 0 1 0"/>
<feBlend mode="normal" in2="BackgroundImageFix" result="effect1_dropShadow_2_131"/>
<feColorMatrix in="SourceAlpha" type="matrix" values="0 0 0 0 0 0 0 0 0 0 0 0 0 0 0 0 0 0 127 0" result="hardAlpha"/>
<feOffset dx="-3" dy="-3"/>
<feGaussianBlur stdDeviation="3"/>
<feComposite in2="hardAlpha" operator="out"/>
<feColorMatrix type="matrix" values="0 0 0 0 1 0 0 0 0 1 0 0 0 0 1 0 0 0 1 0"/>
<feBlend mode="normal" in2="effect1_dropShadow_2_131" result="effect2_dropShadow_2_131"/>
<feBlend mode="normal" in="SourceGraphic" in2="effect2_dropShadow_2_131" result="shape"/>
</filter>
</defs>
</svg>
