<svg width="90" height="90" viewBox="0 0 90 90" fill="none" xmlns="http://www.w3.org/2000/svg">
<g filter="url(#filter0_dd_2_125)">
<circle cx="45.5" cy="45.5" r="36.5" fill="#EAEDF2"/>
</g>
<path d="M45.5112 56.2784C44.033 56.2784 42.7205 56.0298 41.5737 55.5327C40.4335 55.0355 39.5386 54.3561 38.889 53.4943C38.246 52.6259 37.9279 51.6416 37.9345 50.5412C37.9279 49.6861 38.1135 48.9006 38.4913 48.1847C38.8691 47.4687 39.3796 46.8722 40.0225 46.3949C40.6722 45.911 41.3947 45.6027 42.1902 45.4702V45.331C41.1428 45.099 40.2943 44.5653 39.6447 43.7301C39.0017 42.8883 38.6835 41.9171 38.6902 40.8168C38.6835 39.7694 38.9752 38.8348 39.5652 38.0128C40.1551 37.1908 40.9638 36.5445 41.9913 36.0739C43.0188 35.5966 44.1921 35.358 45.5112 35.358C46.8171 35.358 47.9804 35.5966 49.0012 36.0739C50.0287 36.5445 50.8374 37.1908 51.4274 38.0128C52.024 38.8348 52.3223 39.7694 52.3223 40.8168C52.3223 41.9171 51.9941 42.8883 51.3379 43.7301C50.6883 44.5653 49.8497 45.099 48.8223 45.331V45.4702C49.6177 45.6027 50.3336 45.911 50.97 46.3949C51.613 46.8722 52.1234 47.4687 52.5012 48.1847C52.8857 48.9006 53.0779 49.6861 53.0779 50.5412C53.0779 51.6416 52.7531 52.6259 52.1035 53.4943C51.4539 54.3561 50.559 55.0355 49.4189 55.5327C48.2853 56.0298 46.9828 56.2784 45.5112 56.2784ZM45.5112 53.4347C46.2735 53.4347 46.9364 53.3054 47.4998 53.0469C48.0633 52.7817 48.5008 52.4105 48.8123 51.9332C49.1239 51.456 49.283 50.9058 49.2896 50.2827C49.283 49.633 49.1139 49.0597 48.7825 48.5625C48.4577 48.0587 48.0102 47.6643 47.4402 47.3793C46.8767 47.0942 46.2337 46.9517 45.5112 46.9517C44.782 46.9517 44.1324 47.0942 43.5623 47.3793C42.9922 47.6643 42.5415 48.0587 42.21 48.5625C41.8852 49.0597 41.7261 49.633 41.7328 50.2827C41.7261 50.9058 41.8786 51.456 42.1902 51.9332C42.5017 52.4039 42.9392 52.7718 43.5027 53.0369C44.0727 53.3021 44.7422 53.4347 45.5112 53.4347ZM45.5112 44.1577C46.1343 44.1577 46.6845 44.0317 47.1618 43.7798C47.6457 43.5279 48.0268 43.1766 48.3052 42.7259C48.5836 42.2751 48.7261 41.7547 48.7328 41.1648C48.7261 40.5814 48.5869 40.071 48.3152 39.6335C48.0434 39.1894 47.6655 38.848 47.1816 38.6094C46.6977 38.3641 46.1409 38.2415 45.5112 38.2415C44.8682 38.2415 44.3014 38.3641 43.8109 38.6094C43.327 38.848 42.9492 39.1894 42.6774 39.6335C42.4122 40.071 42.283 40.5814 42.2896 41.1648C42.283 41.7547 42.4155 42.2751 42.6873 42.7259C42.9657 43.17 43.3469 43.5213 43.8308 43.7798C44.3213 44.0317 44.8815 44.1577 45.5112 44.1577Z" fill="black"/>
<defs>
<filter id="filter0_dd_2_125" x="0" y="0" width="90" height="90" filterUnits="userSpaceOnUse" color-interpolation-filters="sRGB">
<feFlood flood-opacity="0" result="BackgroundImageFix"/>
<feColorMatrix in="SourceAlpha" type="matrix" values="0 0 0 0 0 0 0 0 0 0 0 0 0 0 0 0 0 0 127 0" result="hardAlpha"/>
<feOffset dx="2" dy="2"/>
<feGaussianBlur stdDeviation="3"/>
<feComposite in2="hardAlpha" operator="out"/>
<feColorMatrix type="matrix" values="0 0 0 0 0.682353 0 0 0 0 0.682353 0 0 0 0 0.752941 0 0 0 1 0"/>
<feBlend mode="normal" in2="BackgroundImageFix" result="effect1_dropShadow_2_125"/>
<feColorMatrix in="SourceAlpha" type="matrix" values="0 0 0 0 0 0 0 0 0 0 0 0 0 0 0 0 0 0 127 0" result="hardAlpha"/>
<feOffset dx="-3" dy="-3"/>
<feGaussianBlur stdDeviation="3"/>
<feComposite in2="hardAlpha" operator="out"/>
<feColorMatrix type="matrix" values="0 0 0 0 1 0 0 0 0 1 0 0 0 0 1 0 0 0 1 0"/>
<feBlend mode="normal" in2="effect1_dropShadow_2_125" result="effect2_dropShadow_2_125"/>
<feBlend mode="normal" in="SourceGraphic" in2="effect2_dropShadow_2_125" result="shape"/>
</filter>
</defs>
</svg>
