<svg width="90" height="90" viewBox="0 0 90 90" fill="none" xmlns="http://www.w3.org/2000/svg">
<g filter="url(#filter0_dd_2_122)">
<circle cx="45.5" cy="45.5" r="36.5" fill="#EAEDF2"/>
</g>
<path d="M45.3011 35.358C46.2756 35.3646 47.2235 35.5369 48.1449 35.875C49.0729 36.2064 49.9081 36.75 50.6506 37.5057C51.393 38.2547 51.983 39.259 52.4205 40.5185C52.858 41.7779 53.0767 43.3357 53.0767 45.1918C53.0833 46.9418 52.8977 48.5062 52.5199 49.8849C52.1487 51.2571 51.6151 52.4171 50.919 53.3651C50.223 54.313 49.3845 55.0355 48.4034 55.5327C47.4223 56.0298 46.3187 56.2784 45.0923 56.2784C43.8063 56.2784 42.6662 56.0265 41.6719 55.5227C40.6842 55.0189 39.8854 54.3295 39.2756 53.4545C38.6657 52.5795 38.2912 51.5786 38.152 50.4517H41.7812C41.9669 51.2604 42.3447 51.9034 42.9148 52.3807C43.4915 52.8513 44.2173 53.0866 45.0923 53.0866C46.5043 53.0866 47.5914 52.4735 48.3537 51.2472C49.116 50.0208 49.4972 48.3172 49.4972 46.1364H49.358C49.0331 46.7197 48.6122 47.2235 48.0952 47.6477C47.5781 48.0653 46.9915 48.3868 46.3352 48.6122C45.6856 48.8376 44.9962 48.9503 44.267 48.9503C43.0739 48.9503 42 48.6652 41.0455 48.0952C40.0975 47.5251 39.3452 46.7429 38.7884 45.7486C38.2382 44.7543 37.9598 43.6174 37.9531 42.3381C37.9531 41.0123 38.258 39.8224 38.8679 38.7685C39.4844 37.7079 40.3428 36.8726 41.4432 36.2628C42.5436 35.6463 43.8295 35.3447 45.3011 35.358ZM45.3111 38.3409C44.5952 38.3409 43.9489 38.5166 43.3722 38.8679C42.8021 39.2126 42.3513 39.6832 42.0199 40.2798C41.6951 40.8698 41.5327 41.5294 41.5327 42.2585C41.5393 42.9811 41.7017 43.6373 42.0199 44.2273C42.3447 44.8172 42.7855 45.2846 43.3423 45.6293C43.9058 45.974 44.5488 46.1463 45.2713 46.1463C45.8082 46.1463 46.3087 46.0436 46.7727 45.8381C47.2367 45.6326 47.6411 45.3475 47.9858 44.983C48.3371 44.6117 48.6089 44.1908 48.8011 43.7202C49 43.2495 49.0961 42.7524 49.0895 42.2287C49.0895 41.5327 48.9238 40.8897 48.5923 40.2997C48.2675 39.7098 47.8201 39.2358 47.25 38.8778C46.6866 38.5199 46.0402 38.3409 45.3111 38.3409Z" fill="black"/>
<defs>
<filter id="filter0_dd_2_122" x="0" y="0" width="90" height="90" filterUnits="userSpaceOnUse" color-interpolation-filters="sRGB">
<feFlood flood-opacity="0" result="BackgroundImageFix"/>
<feColorMatrix in="SourceAlpha" type="matrix" values="0 0 0 0 0 0 0 0 0 0 0 0 0 0 0 0 0 0 127 0" result="hardAlpha"/>
<feOffset dx="2" dy="2"/>
<feGaussianBlur stdDeviation="3"/>
<feComposite in2="hardAlpha" operator="out"/>
<feColorMatrix type="matrix" values="0 0 0 0 0.682353 0 0 0 0 0.682353 0 0 0 0 0.752941 0 0 0 1 0"/>
<feBlend mode="normal" in2="BackgroundImageFix" result="effect1_dropShadow_2_122"/>
<feColorMatrix in="SourceAlpha" type="matrix" values="0 0 0 0 0 0 0 0 0 0 0 0 0 0 0 0 0 0 127 0" result="hardAlpha"/>
<feOffset dx="-3" dy="-3"/>
<feGaussianBlur stdDeviation="3"/>
<feComposite in2="hardAlpha" operator="out"/>
<feColorMatrix type="matrix" values="0 0 0 0 1 0 0 0 0 1 0 0 0 0 1 0 0 0 1 0"/>
<feBlend mode="normal" in2="effect1_dropShadow_2_122" result="effect2_dropShadow_2_122"/>
<feBlend mode="normal" in="SourceGraphic" in2="effect2_dropShadow_2_122" result="shape"/>
</filter>
</defs>
</svg>
