<svg width="90" height="90" viewBox="0 0 90 90" fill="none" xmlns="http://www.w3.org/2000/svg">
<g filter="url(#filter0_dd_2_179)">
<circle cx="45.5" cy="45.5" r="36.5" fill="#EAEDF2"/>
</g>
<path d="M46.3203 52.9091V51.7585C46.3203 50.8849 46.505 50.0824 46.8743 49.3509C47.2507 48.6122 47.794 48.0227 48.5043 47.5824C49.2216 47.1349 50.0952 46.9112 51.125 46.9112C52.169 46.9112 53.0462 47.1314 53.7564 47.5717C54.4737 48.0121 55.0135 48.6016 55.3757 49.3402C55.745 50.0717 55.9297 50.8778 55.9297 51.7585V52.9091C55.9297 53.7827 55.745 54.5888 55.3757 55.3274C55.0064 56.0589 54.4631 56.6449 53.7457 57.0852C53.0284 57.5327 52.1548 57.7564 51.125 57.7564C50.081 57.7564 49.2038 57.5327 48.4936 57.0852C47.7834 56.6449 47.2436 56.0589 46.8743 55.3274C46.505 54.5888 46.3203 53.7827 46.3203 52.9091ZM49.4205 51.7585V52.9091C49.4205 53.4134 49.5412 53.8892 49.7827 54.3366C50.0313 54.7841 50.4787 55.0078 51.125 55.0078C51.7713 55.0078 52.2116 54.7876 52.446 54.3473C52.6875 53.907 52.8082 53.4276 52.8082 52.9091V51.7585C52.8082 51.2401 52.6946 50.7571 52.4673 50.3097C52.2401 49.8622 51.7926 49.6385 51.125 49.6385C50.4858 49.6385 50.0419 49.8622 49.7933 50.3097C49.5447 50.7571 49.4205 51.2401 49.4205 51.7585ZM35.1236 40.4233V39.2727C35.1236 38.392 35.3118 37.5859 35.6882 36.8544C36.0646 36.1158 36.608 35.5263 37.3182 35.0859C38.0355 34.6456 38.902 34.4254 39.9176 34.4254C40.9688 34.4254 41.8494 34.6456 42.5597 35.0859C43.2699 35.5263 43.8097 36.1158 44.179 36.8544C44.5483 37.5859 44.733 38.392 44.733 39.2727V40.4233C44.733 41.304 44.5447 42.1101 44.1683 42.8416C43.799 43.5732 43.2557 44.1591 42.5384 44.5994C41.8281 45.0327 40.9545 45.2493 39.9176 45.2493C38.8807 45.2493 38.0036 45.0291 37.2862 44.5888C36.576 44.1413 36.0362 43.5554 35.6669 42.831C35.3047 42.0994 35.1236 41.2969 35.1236 40.4233ZM38.245 39.2727V40.4233C38.245 40.9418 38.3658 41.4212 38.6072 41.8615C38.8558 42.3018 39.2926 42.522 39.9176 42.522C40.571 42.522 41.0149 42.3018 41.2493 41.8615C41.4908 41.4212 41.6115 40.9418 41.6115 40.4233V39.2727C41.6115 38.7543 41.4979 38.2713 41.2706 37.8239C41.0433 37.3764 40.5923 37.1527 39.9176 37.1527C39.2855 37.1527 38.8487 37.38 38.6072 37.8345C38.3658 38.2891 38.245 38.7685 38.245 39.2727ZM36.5298 57L51.5298 35.1818H54.321L39.321 57H36.5298Z" fill="#FF8E26"/>
<defs>
<filter id="filter0_dd_2_179" x="0" y="0" width="90" height="90" filterUnits="userSpaceOnUse" color-interpolation-filters="sRGB">
<feFlood flood-opacity="0" result="BackgroundImageFix"/>
<feColorMatrix in="SourceAlpha" type="matrix" values="0 0 0 0 0 0 0 0 0 0 0 0 0 0 0 0 0 0 127 0" result="hardAlpha"/>
<feOffset dx="2" dy="2"/>
<feGaussianBlur stdDeviation="3"/>
<feComposite in2="hardAlpha" operator="out"/>
<feColorMatrix type="matrix" values="0 0 0 0 0.682353 0 0 0 0 0.682353 0 0 0 0 0.752941 0 0 0 1 0"/>
<feBlend mode="normal" in2="BackgroundImageFix" result="effect1_dropShadow_2_179"/>
<feColorMatrix in="SourceAlpha" type="matrix" values="0 0 0 0 0 0 0 0 0 0 0 0 0 0 0 0 0 0 127 0" result="hardAlpha"/>
<feOffset dx="-3" dy="-3"/>
<feGaussianBlur stdDeviation="3"/>
<feComposite in2="hardAlpha" operator="out"/>
<feColorMatrix type="matrix" values="0 0 0 0 1 0 0 0 0 1 0 0 0 0 1 0 0 0 1 0"/>
<feBlend mode="normal" in2="effect1_dropShadow_2_179" result="effect2_dropShadow_2_179"/>
<feBlend mode="normal" in="SourceGraphic" in2="effect2_dropShadow_2_179" result="shape"/>
</filter>
</defs>
</svg>
