<svg width="90" height="90" viewBox="0 0 90 90" fill="none" xmlns="http://www.w3.org/2000/svg">
<g filter="url(#filter0_dd_2_156)">
<circle cx="45.5" cy="45.5" r="36.5" fill="#EAEDF2"/>
</g>
<path d="M45.5062 56.2188C44.903 56.2188 44.3859 56.0066 43.9551 55.5824C43.5242 55.1581 43.3121 54.6411 43.3187 54.0312C43.3121 53.4347 43.5242 52.9242 43.9551 52.5C44.3859 52.0758 44.903 51.8636 45.5062 51.8636C46.0895 51.8636 46.5967 52.0758 47.0275 52.5C47.465 52.9242 47.6871 53.4347 47.6937 54.0312C47.6871 54.4356 47.581 54.8035 47.3755 55.1349C47.1767 55.4664 46.9115 55.7315 46.5801 55.9304C46.2553 56.1226 45.8973 56.2188 45.5062 56.2188Z" fill="black"/>
<defs>
<filter id="filter0_dd_2_156" x="0" y="0" width="90" height="90" filterUnits="userSpaceOnUse" color-interpolation-filters="sRGB">
<feFlood flood-opacity="0" result="BackgroundImageFix"/>
<feColorMatrix in="SourceAlpha" type="matrix" values="0 0 0 0 0 0 0 0 0 0 0 0 0 0 0 0 0 0 127 0" result="hardAlpha"/>
<feOffset dx="2" dy="2"/>
<feGaussianBlur stdDeviation="3"/>
<feComposite in2="hardAlpha" operator="out"/>
<feColorMatrix type="matrix" values="0 0 0 0 0.682353 0 0 0 0 0.682353 0 0 0 0 0.752941 0 0 0 1 0"/>
<feBlend mode="normal" in2="BackgroundImageFix" result="effect1_dropShadow_2_156"/>
<feColorMatrix in="SourceAlpha" type="matrix" values="0 0 0 0 0 0 0 0 0 0 0 0 0 0 0 0 0 0 127 0" result="hardAlpha"/>
<feOffset dx="-3" dy="-3"/>
<feGaussianBlur stdDeviation="3"/>
<feComposite in2="hardAlpha" operator="out"/>
<feColorMatrix type="matrix" values="0 0 0 0 1 0 0 0 0 1 0 0 0 0 1 0 0 0 1 0"/>
<feBlend mode="normal" in2="effect1_dropShadow_2_156" result="effect2_dropShadow_2_156"/>
<feBlend mode="normal" in="SourceGraphic" in2="effect2_dropShadow_2_156" result="shape"/>
</filter>
</defs>
</svg>
