<svg width="57" height="57" viewBox="0 0 57 57" fill="none" xmlns="http://www.w3.org/2000/svg">
<g filter="url(#filter0_dd_2_88)">
<rect x="9" y="9" width="40" height="40" rx="5" fill="#EAEDF2"/>
</g>
<path d="M31.9569 23.9646C32.0573 23.6846 32.4583 23.6846 32.5587 23.9646L32.8334 24.7303C32.8656 24.8199 32.937 24.8905 33.0277 24.9222L33.803 25.1935C34.0865 25.2927 34.0865 25.6887 33.803 25.788L33.0277 26.0593C32.937 26.091 32.8656 26.1615 32.8334 26.2512L32.5587 27.0168C32.4583 27.2969 32.0573 27.2969 31.9569 27.0168L31.6822 26.2512C31.65 26.1615 31.5786 26.091 31.4879 26.0593L30.7126 25.788C30.4291 25.6887 30.4291 25.2927 30.7126 25.1935L31.4879 24.9222C31.5786 24.8905 31.65 24.8199 31.6822 24.7303L31.9569 23.9646Z" fill="#363853"/>
<path d="M34.9869 27.3669C35.0539 27.1802 35.3211 27.1802 35.3881 27.3669L35.5713 27.8773C35.5927 27.9371 35.6403 27.9841 35.7008 28.0052L36.2176 28.1861C36.4066 28.2523 36.4066 28.5163 36.2176 28.5824L35.7008 28.7633C35.6403 28.7844 35.5927 28.8315 35.5713 28.8912L35.3881 29.4017C35.3211 29.5883 35.0539 29.5883 34.9869 29.4017L34.8037 28.8912C34.7823 28.8315 34.7347 28.7844 34.6742 28.7633L34.1574 28.5824C33.9684 28.5163 33.9684 28.2523 34.1574 28.1861L34.6742 28.0052C34.7347 27.9841 34.7823 27.9371 34.8037 27.8773L34.9869 27.3669Z" fill="#363853"/>
<path d="M36.5097 19.429C36.6551 19.0237 37.2355 19.0237 37.3809 19.429L37.8793 20.8182C37.9259 20.948 38.0292 21.0501 38.1606 21.096L39.5672 21.5883C39.9776 21.7319 39.9776 22.3051 39.5672 22.4488L38.1606 22.941C38.0292 22.987 37.9259 23.0891 37.8793 23.2188L37.3809 24.608C37.2355 25.0134 36.6551 25.0134 36.5097 24.608L36.0113 23.2188C35.9647 23.0891 35.8614 22.987 35.73 22.941L34.3234 22.4488C33.913 22.3051 33.913 21.7319 34.3234 21.5883L35.73 21.096C35.8614 21.0501 35.9647 20.948 36.0113 20.8182L36.5097 19.429Z" fill="#363853"/>
<path d="M21.125 30.0205C21.125 34.3584 24.744 37.875 29.2082 37.875C32.6449 37.875 35.5806 35.7909 36.75 32.8524C35.8239 33.2751 34.7897 33.5114 33.6988 33.5114C29.7306 33.5114 26.5138 30.3855 26.5138 26.5296C26.5138 24.9169 27.0764 23.432 28.0214 22.25C24.1198 22.8078 21.125 26.0743 21.125 30.0205Z" stroke="#363853" stroke-width="1.5" stroke-linecap="round" stroke-linejoin="round"/>
<defs>
<filter id="filter0_dd_2_88" x="0" y="0" width="57" height="57" filterUnits="userSpaceOnUse" color-interpolation-filters="sRGB">
<feFlood flood-opacity="0" result="BackgroundImageFix"/>
<feColorMatrix in="SourceAlpha" type="matrix" values="0 0 0 0 0 0 0 0 0 0 0 0 0 0 0 0 0 0 127 0" result="hardAlpha"/>
<feOffset dx="2" dy="2"/>
<feGaussianBlur stdDeviation="3"/>
<feComposite in2="hardAlpha" operator="out"/>
<feColorMatrix type="matrix" values="0 0 0 0 0.682353 0 0 0 0 0.682353 0 0 0 0 0.752941 0 0 0 1 0"/>
<feBlend mode="normal" in2="BackgroundImageFix" result="effect1_dropShadow_2_88"/>
<feColorMatrix in="SourceAlpha" type="matrix" values="0 0 0 0 0 0 0 0 0 0 0 0 0 0 0 0 0 0 127 0" result="hardAlpha"/>
<feOffset dx="-3" dy="-3"/>
<feGaussianBlur stdDeviation="3"/>
<feComposite in2="hardAlpha" operator="out"/>
<feColorMatrix type="matrix" values="0 0 0 0 1 0 0 0 0 1 0 0 0 0 1 0 0 0 1 0"/>
<feBlend mode="normal" in2="effect1_dropShadow_2_88" result="effect2_dropShadow_2_88"/>
<feBlend mode="normal" in="SourceGraphic" in2="effect2_dropShadow_2_88" result="shape"/>
</filter>
</defs>
</svg>
