<svg width="50" height="50" viewBox="0 0 50 50" fill="none" xmlns="http://www.w3.org/2000/svg">
<path fill-rule="evenodd" clip-rule="evenodd" d="M23.9298 9.93321C16.0874 10.4822 9.89587 17.0181 9.89587 25C9.89587 33.3418 16.6582 40.1042 25 40.1042C31.6831 40.1042 37.3536 35.7629 39.3434 29.7473C37.812 30.3799 36.1336 30.7292 34.375 30.7292C27.1838 30.7292 21.3542 24.8996 21.3542 17.7084C21.3542 14.7935 22.3128 12.1023 23.9298 9.93321ZM6.77087 25C6.77087 14.9323 14.9323 6.77087 25 6.77087C25.9367 6.77087 26.8579 6.84166 27.7583 6.97841C28.3811 7.07302 28.8862 7.5324 29.0393 8.1435C29.1924 8.7546 28.9635 9.39786 28.4588 9.77492C26.0401 11.582 24.4792 14.4627 24.4792 17.7084C24.4792 23.1737 28.9097 27.6042 34.375 27.6042C36.738 27.6042 38.9038 26.778 40.6053 25.3972C41.0943 25.0005 41.7736 24.9359 42.3285 25.2336C42.8834 25.5312 43.2054 26.1328 43.1453 26.7596C42.2591 36.0025 34.4744 43.2292 25 43.2292C14.9323 43.2292 6.77087 35.0677 6.77087 25Z" fill="#9F9F9F"/>
</svg>
