<svg width="50" height="50" viewBox="0 0 50 50" fill="none" xmlns="http://www.w3.org/2000/svg">
<path d="M25 2.60413C25.863 2.60413 26.5625 3.30368 26.5625 4.16663V6.24996C26.5625 7.1129 25.863 7.81246 25 7.81246C24.1371 7.81246 23.4375 7.1129 23.4375 6.24996V4.16663C23.4375 3.30368 24.1371 2.60413 25 2.60413Z" fill="black"/>
<path fill-rule="evenodd" clip-rule="evenodd" d="M13.0209 25C13.0209 18.384 18.3841 13.0208 25 13.0208C31.6159 13.0208 36.9792 18.384 36.9792 25C36.9792 31.6159 31.6159 36.9791 25 36.9791C18.3841 36.9791 13.0209 31.6159 13.0209 25ZM25 16.1458C20.11 16.1458 16.1459 20.1099 16.1459 25C16.1459 29.89 20.11 33.8541 25 33.8541C29.89 33.8541 33.8542 29.89 33.8542 25C33.8542 20.1099 29.89 16.1458 25 16.1458Z" fill="black"/>
<path d="M11.3735 9.16376C10.7633 8.55357 9.774 8.55357 9.1638 9.16376C8.55361 9.77396 8.55361 10.7633 9.1638 11.3735L10.6369 12.8466C11.2471 13.4568 12.2365 13.4568 12.8467 12.8466C13.4568 12.2364 13.4568 11.2471 12.8467 10.6369L11.3735 9.16376Z" fill="black"/>
<path d="M47.3959 25C47.3959 25.8629 46.6963 26.5625 45.8334 26.5625H43.75C42.8871 26.5625 42.1875 25.8629 42.1875 25C42.1875 24.137 42.8871 23.4375 43.75 23.4375H45.8334C46.6963 23.4375 47.3959 24.137 47.3959 25Z" fill="black"/>
<path d="M40.8362 11.3735C41.4464 10.7633 41.4464 9.77394 40.8362 9.16374C40.226 8.55355 39.2367 8.55355 38.6265 9.16374L37.1534 10.6369C36.5432 11.2471 36.5432 12.2364 37.1534 12.8466C37.7636 13.4568 38.7529 13.4568 39.3631 12.8466L40.8362 11.3735Z" fill="black"/>
<path d="M25 42.1875C25.863 42.1875 26.5625 42.887 26.5625 43.75V45.8333C26.5625 46.6962 25.863 47.3958 25 47.3958C24.1371 47.3958 23.4375 46.6962 23.4375 45.8333V43.75C23.4375 42.887 24.1371 42.1875 25 42.1875Z" fill="black"/>
<path d="M39.3632 37.1533C38.753 36.5431 37.7637 36.5431 37.1535 37.1533C36.5433 37.7635 36.5433 38.7529 37.1535 39.3631L38.6267 40.8362C39.2368 41.4464 40.2262 41.4464 40.8364 40.8362C41.4466 40.226 41.4466 39.2367 40.8364 38.6265L39.3632 37.1533Z" fill="black"/>
<path d="M7.81252 25C7.81252 25.8629 7.11297 26.5625 6.25002 26.5625H4.16669C3.30374 26.5625 2.60419 25.8629 2.60419 25C2.60419 24.137 3.30374 23.4375 4.16669 23.4375H6.25002C7.11297 23.4375 7.81252 24.137 7.81252 25Z" fill="black"/>
<path d="M12.8465 39.363C13.4567 38.7528 13.4567 37.7635 12.8465 37.1533C12.2363 36.5431 11.247 36.5431 10.6368 37.1533L9.16367 38.6265C8.55347 39.2367 8.55347 40.226 9.16367 40.8362C9.77386 41.4464 10.7632 41.4464 11.3734 40.8362L12.8465 39.363Z" fill="black"/>
</svg>
